<svg width="49" height="38" viewBox="0 0 49 38" fill="none" xmlns="http://www.w3.org/2000/svg">
<g clip-path="url(#clip0_2103_29220)">
<path d="M15.0291 19.0223C19.609 19.0223 23.3159 15.3961 23.3159 10.9157C23.3159 6.43535 19.609 2.80908 15.0291 2.80908C10.4492 2.80908 6.74236 6.43535 6.74236 10.9157C6.74236 15.3961 10.4492 19.0223 15.0291 19.0223ZM20.7115 21.3385H20.0974C18.5584 22.0623 16.8493 22.4966 15.0291 22.4966C13.209 22.4966 11.5073 22.0623 9.96088 21.3385H9.34677C4.64107 21.3385 0.823242 25.0733 0.823242 29.6767V31.7613C0.823242 33.6794 2.41401 35.2356 4.37471 35.2356H25.6835C27.6442 35.2356 29.235 33.6794 29.235 31.7613V29.6767C29.235 25.0733 25.4172 21.3385 20.7115 21.3385ZM36.3379 19.0223C40.2594 19.0223 43.4409 15.91 43.4409 12.0738C43.4409 8.23762 40.2594 5.12526 36.3379 5.12526C32.4165 5.12526 29.235 8.23762 29.235 12.0738C29.235 15.91 32.4165 19.0223 36.3379 19.0223ZM39.8894 21.3385H39.6083C38.5798 21.6859 37.4922 21.9175 36.3379 21.9175C35.1837 21.9175 34.0961 21.6859 33.0676 21.3385H32.7865C31.2771 21.3385 29.8861 21.7655 28.6653 22.4532C30.4706 24.3568 31.6027 26.8828 31.6027 29.6767V32.4561C31.6027 32.6154 31.5657 32.7674 31.5583 32.9194H44.6247C46.5854 32.9194 48.1762 31.3632 48.1762 29.4451C48.1762 24.9648 44.4693 21.3385 39.8894 21.3385V21.3385Z" fill="#FC00A4"/>
</g>
<defs>
<clipPath id="clip0_2103_29220">
<rect width="47.3529" height="37.0588" fill="white" transform="translate(0.823242 0.492676)"/>
</clipPath>
</defs>
</svg>
