<svg width="40" height="40" viewBox="0 0 40 40" fill="none" xmlns="http://www.w3.org/2000/svg">
<g clip-path="url(#clip0_2103_29264)">
<path d="M32.6063 6.42851C32.6063 5.45589 32.9927 4.5231 33.6805 3.83535C34.3682 3.1476 35.301 2.76123 36.2736 2.76123C37.2462 2.76123 38.179 3.1476 38.8668 3.83535C39.5545 4.5231 39.9409 5.45589 39.9409 6.42851V33.3219C39.9409 34.2945 39.5545 35.2273 38.8668 35.9151C38.179 36.6028 37.2462 36.9892 36.2736 36.9892C35.301 36.9892 34.3682 36.6028 33.6805 35.9151C32.9927 35.2273 32.6063 34.2945 32.6063 33.3219V6.42851ZM30.1615 8.19858C25.108 10.5212 19.0643 11.8194 13.0475 12.2473V27.4958C13.9356 27.5459 14.8224 27.6152 15.7075 27.7036C20.7268 28.2024 25.5798 29.3368 30.1615 31.5176V8.19858ZM10.6027 27.3687V12.3793C8.94015 12.4453 7.1823 12.4844 5.69339 12.5089C4.39845 12.5268 3.16237 13.0527 2.25143 13.9732C1.3405 14.8938 0.827606 16.1353 0.823242 17.4303L0.823242 22.3201C0.823242 25.0241 3.01383 27.2 5.69828 27.2318C6.10252 27.2368 6.50674 27.2433 6.91093 27.2513C8.14192 27.2759 9.37258 27.315 10.6027 27.3687ZM14.001 30.0116C14.6978 30.0629 15.3921 30.1265 16.0791 30.2023L16.6977 34.3341C16.765 34.6876 16.7534 35.0517 16.6637 35.4003C16.574 35.7489 16.4085 36.0734 16.1789 36.3506C15.9494 36.6278 15.6614 36.851 15.3356 37.004C15.0099 37.1571 14.6543 37.2363 14.2944 37.2361H12.9546C12.4794 37.2361 12.0145 37.0975 11.6167 36.8374C11.219 36.5773 10.9057 36.207 10.7151 35.7716L7.50258 29.7084C8.88209 29.7428 10.2611 29.795 11.6393 29.8649C12.4387 29.9064 13.2284 29.9553 14.001 30.0116Z" fill="#FC00A4"/>
</g>
<defs>
<clipPath id="clip0_2103_29264">
<rect width="39.1176" height="39.1176" fill="white" transform="translate(0.823242 0.316895)"/>
</clipPath>
</defs>
</svg>
