<svg width="44" height="44" viewBox="0 0 44 44" fill="none" xmlns="http://www.w3.org/2000/svg">
<path d="M38.6989 15.1371L27.9788 13.5791L23.1866 3.86387C23.0557 3.59787 22.8404 3.38254 22.5744 3.25165C21.9073 2.92232 21.0966 3.19676 20.7631 3.86387L15.9709 13.5791L5.2507 15.1371C4.95514 15.1794 4.68492 15.3187 4.47804 15.5298C4.22792 15.7869 4.0901 16.1327 4.09485 16.4914C4.0996 16.85 4.24653 17.1921 4.50337 17.4425L12.2595 25.0044L10.4271 35.6823C10.3841 35.9307 10.4116 36.1862 10.5065 36.4198C10.6013 36.6533 10.7597 36.8557 10.9636 37.0038C11.1676 37.1519 11.409 37.24 11.6604 37.2579C11.9119 37.2758 12.1633 37.2229 12.3862 37.1052L21.9748 32.0639L31.5634 37.1052C31.8252 37.2446 32.1292 37.291 32.4205 37.2403C33.1552 37.1137 33.6492 36.417 33.5225 35.6823L31.6901 25.0044L39.4463 17.4425C39.6574 17.2356 39.7967 16.9653 39.8389 16.6698C39.9529 15.9309 39.4378 15.2469 38.6989 15.1371V15.1371Z" fill="#FC00A4"/>
</svg>
